<svg id="visual" viewBox="0 0 600 900" width="600" height="900" xmlns="http://www.w3.org/2000/svg" xmlns:xlink="http://www.w3.org/1999/xlink" version="1.1"><path d="M503 900L467 883.3C431 866.7 359 833.3 343 800C327 766.7 367 733.3 395 700C423 666.7 439 633.3 431 600C423 566.7 391 533.3 390 500C389 466.7 419 433.3 418 400C417 366.7 385 333.3 388 300C391 266.7 429 233.3 419 200C409 166.7 351 133.3 330 100C309 66.7 325 33.3 333 16.7L341 0L600 0L600 16.7C600 33.3 600 66.7 600 100C600 133.3 600 166.7 600 200C600 233.3 600 266.7 600 300C600 333.3 600 366.7 600 400C600 433.3 600 466.7 600 500C600 533.3 600 566.7 600 600C600 633.3 600 666.7 600 700C600 733.3 600 766.7 600 800C600 833.3 600 866.7 600 883.3L600 900Z" fill="#ffffff"></path><path d="M359 900L336 883.3C313 866.7 267 833.3 263 800C259 766.7 297 733.3 328 700C359 666.7 383 633.3 372 600C361 566.7 315 533.3 301 500C287 466.7 305 433.3 296 400C287 366.7 251 333.3 263 300C275 266.7 335 233.3 334 200C333 166.7 271 133.3 241 100C211 66.7 213 33.3 214 16.7L215 0L342 0L334 16.7C326 33.3 310 66.7 331 100C352 133.3 410 166.7 420 200C430 233.3 392 266.7 389 300C386 333.3 418 366.7 419 400C420 433.3 390 466.7 391 500C392 533.3 424 566.7 432 600C440 633.3 424 666.7 396 700C368 733.3 328 766.7 344 800C360 833.3 432 866.7 468 883.3L504 900Z" fill="#ffffff"></path><path d="M197 900L190 883.3C183 866.7 169 833.3 175 800C181 766.7 207 733.3 231 700C255 666.7 277 633.3 259 600C241 566.7 183 533.3 159 500C135 466.7 145 433.3 151 400C157 366.7 159 333.3 174 300C189 266.7 217 233.3 213 200C209 166.7 173 133.3 147 100C121 66.7 105 33.3 97 16.7L89 0L216 0L215 16.7C214 33.3 212 66.7 242 100C272 133.3 334 166.7 335 200C336 233.3 276 266.7 264 300C252 333.3 288 366.7 297 400C306 433.3 288 466.7 302 500C316 533.3 362 566.7 373 600C384 633.3 360 666.7 329 700C298 733.3 260 766.7 264 800C268 833.3 314 866.7 337 883.3L360 900Z" fill="#f9f9f9"></path><path d="M0 900L0 883.3C0 866.7 0 833.3 0 800C0 766.7 0 733.3 0 700C0 666.7 0 633.3 0 600C0 566.7 0 533.3 0 500C0 466.7 0 433.3 0 400C0 366.7 0 333.3 0 300C0 266.7 0 233.3 0 200C0 166.7 0 133.3 0 100C0 66.7 0 33.3 0 16.7L0 0L90 0L98 16.7C106 33.3 122 66.7 148 100C174 133.3 210 166.7 214 200C218 233.3 190 266.7 175 300C160 333.3 158 366.7 152 400C146 433.3 136 466.7 160 500C184 533.3 242 566.7 260 600C278 633.3 256 666.7 232 700C208 733.3 182 766.7 176 800C170 833.3 184 866.7 191 883.3L198 900Z" fill="#eeeeee"></path></svg>