<?xml version="1.0" encoding="UTF-8" standalone="no"?>
<svg
   xmlns:dc="http://purl.org/dc/elements/1.1/"
   xmlns:cc="http://creativecommons.org/ns#"
   xmlns:rdf="http://www.w3.org/1999/02/22-rdf-syntax-ns#"
   xmlns:svg="http://www.w3.org/2000/svg"
   xmlns="http://www.w3.org/2000/svg"
   xmlns:sodipodi="http://sodipodi.sourceforge.net/DTD/sodipodi-0.dtd"
   xmlns:inkscape="http://www.inkscape.org/namespaces/inkscape"
   id="visual"
   viewBox="0 0 450 900"
   preserveAspectRatio="none"
   version="1.1"
   sodipodi:docname="layered-waves-haikei.svg"
   inkscape:version="1.0.2-2 (e86c870879, 2021-01-15)">
  <metadata
     id="metadata13">
    <rdf:RDF>
      <cc:Work
         rdf:about="">
        <dc:format>image/svg+xml</dc:format>
        <dc:type
           rdf:resource="http://purl.org/dc/dcmitype/StillImage" />
      </cc:Work>
    </rdf:RDF>
  </metadata>
  <defs
     id="defs11" />
  <sodipodi:namedview
     pagecolor="#ffffff"
     bordercolor="#666666"
     borderopacity="1"
     objecttolerance="10"
     gridtolerance="10"
     guidetolerance="10"
     inkscape:pageopacity="0"
     inkscape:pageshadow="2"
     inkscape:window-width="1920"
     inkscape:window-height="1051"
     id="namedview9"
     showgrid="false"
     inkscape:zoom="0.59161267"
     inkscape:cx="110.55815"
     inkscape:cy="543.84039"
     inkscape:window-x="-9"
     inkscape:window-y="-9"
     inkscape:window-maximized="1"
     inkscape:current-layer="visual" />
  <path
     d="m 449.70095,733.39954 -10.70183,1.73709 c -10.60187,1.7374 -32.00554,5.21156 -53.53188,15.68395 -21.52624,10.44285 -43.17525,27.91347 -64.69661,36.8503 -21.52136,8.93684 -42.91506,9.33991 -64.20142,7.4695 -21.28627,-1.89993 -42.66502,-6.1035 -63.93355,-13.46643 -21.26865,-7.33341 -42.6269,-17.85636 -64.10216,-23.12332 -21.47518,-5.2965 -43.067278,-5.36656 -64.564675,-3.81216 -21.497407,1.5544 -42.900124,4.73326 -53.501508,6.32301 l -10.70135329,1.58944 -0.43978864,135.54155 10.69608393,0.0347 c 10.596114,0.0344 31.988291,0.10379 53.480428,0.17353 21.492127,0.0697 43.084223,0.13979 64.576363,0.20953 21.49212,0.0697 42.88429,0.13914 64.17651,0.20823 21.2922,0.0691 42.68436,0.1385 63.97657,0.20758 21.29221,0.0691 42.68438,0.1385 64.17651,0.20824 21.49214,0.0697 43.08424,0.13979 64.57637,0.20953 21.49213,0.0697 42.8843,0.13914 53.48042,0.17352 l 10.69609,0.0347 z"
     fill="#c9c9c9"
     id="path2"
     style="stroke-width:0.543316" />
  <path
     d="m 449.41447,821.6935 -10.69542,-0.24142 c -10.59554,-0.21156 -31.98637,-0.69438 -53.45934,-6.67007 -21.47297,-5.97568 -43.02808,-17.44422 -64.4954,-25.16217 -21.46742,-7.6884 -42.84713,-11.59668 -64.15208,-7.73831 -21.30505,3.88789 -42.73516,15.51227 -64.05965,25.3947 -21.3245,9.88244 -42.74312,17.96324 -64.22154,13.67076 -21.47844,-4.2925 -43.016493,-21.01734 -64.486487,-27.90844 -21.469907,-6.92064 -42.871666,-4.03707 -53.472571,-2.59496 l -10.70087465,1.44178 -0.34493228,106.3071 10.69608393,0.0347 c 10.596114,0.0344 31.988291,0.10379 53.480428,0.17353 21.492127,0.0697 43.084223,0.13979 64.576363,0.20953 21.49212,0.0697 42.88429,0.13914 64.17651,0.20823 21.2922,0.0691 42.68436,0.1385 63.97657,0.20758 21.29221,0.0691 42.68438,0.1385 64.17651,0.20824 21.49214,0.0697 43.08424,0.13979 64.57637,0.20953 21.49213,0.0697 42.8843,0.13914 53.48042,0.17352 l 10.69609,0.0347 z"
     fill="#e1e0e0"
     id="path4"
     style="stroke-width:0.543316" />
  <path
     d="m 449.30524,855.35741 -10.68717,-2.78097 c -10.58712,-2.81018 -31.96147,-8.37212 -53.45418,-8.26467 -21.4928,0.13696 -43.10406,5.97286 -64.59926,6.84807 -21.49511,0.84569 -42.87424,-3.23977 -64.15217,-7.70878 -21.27803,-4.4395 -42.65487,-9.23366 -63.95138,-7.97392 -21.29653,1.25976 -42.71265,8.57278 -64.22039,13.3164 -21.50785,4.77314 -43.107232,6.94735 -64.597922,6.43467 -21.4907,-0.51269 -42.872721,-3.71225 -53.463661,-5.34124 l -10.69100539,-1.59978 -0.16192654,49.90528 10.69608393,0.0347 c 10.596114,0.0344 31.988291,0.10379 53.480428,0.17353 21.492127,0.0697 43.084223,0.13979 64.576363,0.20953 21.49212,0.0697 42.88429,0.13914 64.17651,0.20823 21.2922,0.0691 42.68436,0.1385 63.97657,0.20758 21.29221,0.0691 42.68438,0.1385 64.17651,0.20824 21.49214,0.0697 43.08424,0.13979 64.57637,0.20953 21.49213,0.0697 42.8843,0.13914 53.48042,0.17352 l 10.69609,0.0347 z"
     fill="#f9f7f7"
     id="path6"
     style="stroke-width:0.543316" />
</svg>
